<svg id="logo_2" data-name="logo 2" xmlns="http://www.w3.org/2000/svg" viewBox="0 0 821.75 624.84"><defs><style>.cls-1{font-size:228.2px;font-family:MissStephams, Miss Stephams;letter-spacing:0.19em;}.cls-2{font-size:268.13px;letter-spacing:0.06em;}.cls-3,.cls-4,.cls-5{fill:none;stroke:#000;stroke-miterlimit:10;}.cls-3{stroke-width:3px;}.cls-4{stroke-width:2px;}.cls-5{stroke-width:1.5px;}.cls-6{font-size:35.05px;font-family:ChaparralPro-LightIt, Chaparral Pro;font-weight:300;font-style:italic;letter-spacing:0.06em;}</style></defs><text class="cls-1" transform="translate(0 379.16)">P<tspan class="cls-2" x="100.64" y="0">âtisserie</tspan></text><path class="cls-3" d="M684.93,497.92c-44.34,113.2-150.56,192.92-274.55,192.92-129,0-238.83-86.35-279.66-206.92" transform="translate(-31 -67.5)"/><path class="cls-3" d="M713.52,493.5" transform="translate(-31 -67.5)"/><path class="cls-3" d="M137,258.9C182.07,147.3,287.5,69,410.38,69c128.73,0,238.31,85.93,279.36,206.05" transform="translate(-31 -67.5)"/><path class="cls-3" d="M713.52,289" transform="translate(-31 -67.5)"/><path class="cls-4" d="M389.41,262.8c7.4-15.65,16.91-30.48,29.34-39.05,8.11-5.59,18.58-8.61,27.68-3.51,5.93,3.33,10.3,8.86,14,14.58a112.69,112.69,0,0,1,12.41,26.11c1.54,4.72,2.77,9.73,1.88,14.62-.79,4.26-3.13,8.06-5.74,11.52a72.93,72.93,0,0,1-40.14,26.52c-9.7,2.41-19.78,2.79-29.6,4.64-8.11,1.53-18.2,3.37-23.16-3.22-3.77-5-2.12-12.09-.1-18A328.2,328.2,0,0,1,389.41,262.8Z" transform="translate(-31 -67.5)"/><path class="cls-4" d="M493.94,205.27c-6.82,3.24-13.77,6.89-18.36,12.89s-6.14,15-1.64,21c9-3.5,16.64-10,19.1-19.33a60.13,60.13,0,0,0,1.37-8.23C494.87,207.82,493.48,209.09,493.94,205.27Z" transform="translate(-31 -67.5)"/><path class="cls-5" d="M507.72,266a34.6,34.6,0,0,1-8.61,3.34,15.37,15.37,0,0,1-5.52.48,17.17,17.17,0,0,1-8.61-4.32,55.72,55.72,0,0,1-6.77-7.45C487.31,259.13,499,261.57,507.72,266Z" transform="translate(-31 -67.5)"/><path class="cls-4" d="M510.54,241.2a105.59,105.59,0,0,0-17.35-2.4,23.35,23.35,0,0,0-8.13.61c-3.76,1.15-6.79,3.91-9.67,6.59,4.81,5.16,13.21,9.92,20.14,8.61S507.94,247.75,510.54,241.2Z" transform="translate(-31 -67.5)"/><path class="cls-4" d="M469,197.63c.72,5.42,1.45,10.89.91,16.34s-2.48,10.92-6.38,14.75c0-3.81-4.58-7.26-5.08-11a17.16,17.16,0,0,1,2.9-11.18A50.43,50.43,0,0,1,469,197.63Z" transform="translate(-31 -67.5)"/><path class="cls-5" d="M467.39,199.45c-2.24,2.11-2.79,5.41-3.21,8.46l-1.64,11.69c-.42,3-.73,6.45,1.26,8.75" transform="translate(-31 -67.5)"/><path class="cls-5" d="M493.12,206.75A105,105,0,0,0,479.6,223c-3.5,5.19-6.64,11.09-6.25,17.34" transform="translate(-31 -67.5)"/><path class="cls-5" d="M510,241.41a91.3,91.3,0,0,1-13.6,4.06,32.82,32.82,0,0,1-7.22,1.2c-4.83.1-9.66-1.9-14.39-.95" transform="translate(-31 -67.5)"/><path class="cls-4" d="M506.27,266A64.67,64.67,0,0,1,479,258" transform="translate(-31 -67.5)"/><path d="M428.22,233.57c-1.18.94-3.12,2-4.54,3.28.73.54,2.2.22,3.34-.73a4.51,4.51,0,0,0,1.51-2.44Z" transform="translate(-31 -67.5)"/><path d="M397.28,297.09c-1.3,1-3.46,2.14-5,3.52.87.67,2.53.38,3.78-.65a4.58,4.58,0,0,0,1.59-2.71Z" transform="translate(-31 -67.5)"/><path d="M441.31,268.92c-1.17.94-3.12,2-4.54,3.28.74.54,2.21.22,3.34-.73a4.54,4.54,0,0,0,1.52-2.43Z" transform="translate(-31 -67.5)"/><path d="M422.57,249c-1.18.94-3.25,1.43-4.54,3.28,1-.12,2.22.17,3.34-.73a4.34,4.34,0,0,0,1.51-2.43Z" transform="translate(-31 -67.5)"/><path d="M423.92,270.83c-1.18.95-3.25,1.44-4.54,3.29,1-.13,2.22.16,3.34-.74a4.34,4.34,0,0,0,1.51-2.43A2,2,0,0,1,423.92,270.83Z" transform="translate(-31 -67.5)"/><path d="M448.7,253.31c-1.72,0-3.12,2-4.54,3.28.74.54,2.21.22,3.34-.73a4.53,4.53,0,0,0,1.52-2.44Z" transform="translate(-31 -67.5)"/><path d="M404.84,280.11c-1.59-.12-2.75,1.66-4,2.74a2.6,2.6,0,0,0,3-.45,3.44,3.44,0,0,0,1.23-2.16Z" transform="translate(-31 -67.5)"/><path d="M403.37,257.14c-1.58.11-3,2.05-4.39,3.29.64.45,2,.06,3.12-.88a4.88,4.88,0,0,0,1.55-2.32A1.52,1.52,0,0,1,403.37,257.14Z" transform="translate(-31 -67.5)"/><path d="M457.64,278.12c-1.72,0-3.25,1.43-4.54,3.28.74.54,2.21.22,3.34-.73a4.51,4.51,0,0,0,1.52-2.43Z" transform="translate(-31 -67.5)"/><path d="M422.3,288.5c-1.56.13-3.06,1.54-4.37,3.3.62.43,2,0,3.08-.92a5.06,5.06,0,0,0,1.56-2.3Z" transform="translate(-31 -67.5)"/><path d="M440.75,292.82c-1.58.15-3.1,1.58-4.45,3.37.62.43,2,0,3.12-1A5.33,5.33,0,0,0,441,292.9Z" transform="translate(-31 -67.5)"/><text class="cls-6" transform="translate(308.51 451.51)">Est. 2022</text></svg>